<svg width="100" height="100" viewBox="0 0 100 100" fill="none" xmlns="http://www.w3.org/2000/svg">
<rect width="100" height="100" rx="50" fill="url(#paint0_linear_6_4)"/>
<path d="M43.6086 68.5676H22.9031C22.4045 68.5676 22 68.1716 22 67.6835V31.8841C22 31.396 22.4045 31 22.9031 31H77.0969C77.5955 31 78 31.396 78 31.8841V67.6835C78 68.1716 77.5955 68.5676 77.0969 68.5676H56.3925C56.1187 68.9615 55.8078 69.3291 55.4651 69.6651C55.3349 69.7926 55.1996 69.9159 55.0606 70.034L56.9113 73.919C57.1217 74.361 56.9264 74.8869 56.4744 75.0929C56.3379 75.155 56.1943 75.1813 56.054 75.1751L54.1097 75.2323L52.7689 76.7044C52.4383 77.0687 51.8679 77.1004 51.4958 76.7767C51.3807 76.6764 51.2979 76.5539 51.2484 76.4215L49.9219 73.5139L48.7442 76.4383C48.5636 76.8914 48.0402 77.116 47.577 76.9387C47.4396 76.8865 47.3233 76.8043 47.2321 76.7035L45.8909 75.2322L43.8823 75.173C43.3858 75.1598 42.9939 74.754 43.0074 74.2679C43.0107 74.1433 43.041 74.0261 43.0914 73.9196L44.9399 70.0346C44.8021 69.917 44.6681 69.7953 44.5388 69.6682C44.1943 69.3311 43.884 68.963 43.6084 68.5675L43.6086 68.5676ZM53.5478 71.0393C52.7989 71.4196 51.9789 71.6832 51.1132 71.8057L52.3485 74.5127L53.0197 73.7754C53.1806 73.6015 53.4103 73.4884 53.6682 73.4814L54.6965 73.4514L53.5472 71.0389L53.5478 71.0393ZM48.6859 71.7745C47.8942 71.6409 47.1431 71.3896 46.4526 71.0393L45.3033 73.4518L46.2828 73.4802C46.539 73.4732 46.7969 73.5727 46.9805 73.7754L47.6042 74.4597L48.6859 71.7741L48.6859 71.7745ZM50.0002 58.8308C51.5476 58.8308 52.9506 59.4455 53.9644 60.4385C54.978 61.4308 55.606 62.8038 55.606 64.3186C55.606 65.8314 54.978 67.2031 53.9644 68.1962C52.9467 69.1918 51.5455 69.8065 50.0002 69.8065C48.4549 69.8065 47.0537 69.1918 46.0393 68.1995C45.0224 67.2032 44.3945 65.8314 44.3945 64.3186C44.3945 62.8037 45.0224 61.4303 46.036 60.4385C47.0504 59.4455 48.4529 58.8308 50.0002 58.8308ZM52.6871 61.689C52 61.0163 51.049 60.5993 50.0002 60.5993C48.951 60.5993 48.0004 61.0162 47.3133 61.689C46.627 62.3609 46.2011 63.2919 46.2011 64.3186C46.2011 65.347 46.6257 66.2779 47.312 66.9503C47.9992 67.6222 48.9501 68.0379 50.0002 68.0379C51.0507 68.0379 52.0016 67.6222 52.6884 66.9503C53.3747 66.2776 53.7994 65.3466 53.7994 64.3186C53.7994 63.2914 53.3735 62.3608 52.6871 61.689ZM57.302 66.7994H76.1946V32.7685H23.8072V66.7994H42.6997C42.4229 66.0219 42.2738 65.1876 42.2738 64.3187C42.2738 62.2298 43.1395 60.3375 44.537 58.9694C45.9353 57.6005 47.8682 56.753 50.0019 56.753C52.1357 56.753 54.0686 57.6005 55.4669 58.9694C56.8644 60.3375 57.7301 62.2299 57.7301 64.3187C57.7301 65.1876 57.5801 66.0224 57.3042 66.7994H57.302ZM54.1874 60.2198C53.1164 59.1712 51.635 58.5215 49.9998 58.5215C48.3646 58.5215 46.8832 59.1712 45.8121 60.2198C44.7411 61.2684 44.0782 62.7178 44.0782 64.3187C44.0782 65.9208 44.7411 67.3719 45.8108 68.4196C46.0406 68.6445 46.2897 68.8506 46.5547 69.0364L46.5606 69.0397L46.5698 69.0467L46.5791 69.0525L46.6169 69.0796C47.5754 69.7314 48.7418 70.1158 50.0002 70.1158C51.2582 70.1158 52.4247 69.7322 53.3836 69.0796L53.4214 69.0525L53.4306 69.0467L53.4399 69.0397L53.4458 69.0364C53.7112 68.8514 53.9599 68.6445 54.1896 68.4196C55.2594 67.3719 55.9222 65.9208 55.9222 64.3187C55.9222 62.7179 55.2594 61.2684 54.1883 60.2198H54.1874ZM33.097 55.3043C32.5984 55.3043 32.1939 54.9083 32.1939 54.4202C32.1939 53.9321 32.5984 53.5362 33.097 53.5362H66.9037C67.4022 53.5362 67.8067 53.9321 67.8067 54.4202C67.8067 54.9083 67.4022 55.3043 66.9037 55.3043H33.097ZM33.097 52.0854C32.5984 52.0854 32.1939 51.6895 32.1939 51.2014C32.1939 50.7133 32.5984 50.3173 33.097 50.3173H66.9037C67.4022 50.3173 67.8067 50.7133 67.8067 51.2014C67.8067 51.6895 67.4022 52.0854 66.9037 52.0854H33.097ZM33.097 48.8657C32.5984 48.8657 32.1939 48.4697 32.1939 47.9817C32.1939 47.4936 32.5984 47.0976 33.097 47.0976H66.9037C67.4022 47.0976 67.8067 47.4936 67.8067 47.9817C67.8067 48.4697 67.4022 48.8657 66.9037 48.8657H33.097ZM41.1208 40.2375C40.6222 40.2375 40.2177 39.8415 40.2177 39.3534C40.2177 38.8653 40.6222 38.4693 41.1208 38.4693H58.8801C59.3786 38.4693 59.7831 38.8653 59.7831 39.3534C59.7831 39.8415 59.3786 40.2375 58.8801 40.2375H41.1208ZM44.3034 37.2777C43.8048 37.2777 43.4003 36.8817 43.4003 36.3936C43.4003 35.9055 43.8048 35.5095 44.3034 35.5095H55.697C56.1956 35.5095 56.6001 35.9055 56.6001 36.3936C56.6001 36.8817 56.1956 37.2777 55.697 37.2777H44.3034ZM66.2519 36.3919C66.2519 35.9038 66.6564 35.5078 67.155 35.5078C67.6536 35.5078 68.0581 35.9038 68.0581 36.3919C68.0581 37.5861 68.5575 38.672 69.3601 39.4591C70.1636 40.2453 71.2733 40.7338 72.4931 40.7338C72.9917 40.7338 73.3962 41.1298 73.3962 41.6179C73.3962 42.106 72.9917 42.502 72.4931 42.502C70.7786 42.502 69.2186 41.8132 68.0878 40.7079C66.955 39.5972 66.2515 38.0704 66.2515 36.3919L66.2519 36.3919ZM72.4936 57.0654C72.9922 57.0654 73.3966 57.4614 73.3966 57.9495C73.3966 58.4376 72.9922 58.8336 72.4936 58.8336C71.2738 58.8336 70.1645 59.3225 69.3606 60.1083C68.5575 60.8949 68.0585 61.9813 68.0585 63.1755C68.0585 63.6636 67.654 64.0596 67.1554 64.0596C66.6569 64.0596 66.2524 63.6636 66.2524 63.1755C66.2524 61.497 66.9559 59.9698 68.085 58.8628C69.2195 57.7538 70.7791 57.065 72.4936 57.065L72.4936 57.0654ZM33.7493 63.1759C33.7493 63.664 33.3448 64.06 32.8462 64.06C32.3476 64.06 31.9431 63.664 31.9431 63.1759C31.9431 61.9818 31.4437 60.8958 30.6411 60.1087C29.8376 59.3225 28.7278 58.834 27.5081 58.834C27.0095 58.834 26.605 58.4381 26.605 57.95C26.605 57.4619 27.0095 57.0659 27.5081 57.0659C29.2226 57.0659 30.7826 57.7546 31.9134 58.86C33.0462 59.9706 33.7497 61.4974 33.7497 63.1759L33.7493 63.1759ZM27.5076 42.5024C27.009 42.5024 26.6045 42.1064 26.6045 41.6183C26.6045 41.1302 27.009 40.7342 27.5076 40.7342C28.7274 40.7342 29.8367 40.2453 30.6406 39.4596C31.4437 38.6729 31.9427 37.5865 31.9427 36.3924C31.9427 35.9043 32.3472 35.5083 32.8457 35.5083C33.3443 35.5083 33.7488 35.9043 33.7488 36.3924C33.7488 38.0709 33.0453 39.5981 31.9162 40.7051C30.7817 41.8141 29.2221 42.5028 27.5076 42.5028L27.5076 42.5024Z" fill="white"/>
<defs>
<linearGradient id="paint0_linear_6_4" x1="12.5" y1="12.5" x2="92.5" y2="78" gradientUnits="userSpaceOnUse">
<stop stop-color="#32CD79"/>
<stop offset="0.356201" stop-color="#2FC49C"/>
<stop offset="1" stop-color="#2CBBC0"/>
</linearGradient>
</defs>
</svg>
